<svg width="18" height="18" viewBox="0 0 18 18" fill="none" xmlns="http://www.w3.org/2000/svg">
<path d="M6.50391 8.775C7.08273 9.97032 8.04929 10.9344 9.24609 11.5102C9.33437 11.552 9.43202 11.5701 9.52942 11.5627C9.62681 11.5553 9.72061 11.5226 9.80156 11.468L11.5594 10.2937C11.637 10.2411 11.7268 10.2089 11.8202 10.2003C11.9137 10.1917 12.0078 10.2069 12.0937 10.2445L15.3844 11.6578C15.4968 11.7046 15.5908 11.7871 15.6518 11.8926C15.7128 11.998 15.7374 12.1206 15.7219 12.2414C15.6176 13.0554 15.2202 13.8036 14.6042 14.3458C13.9882 14.8881 13.1957 15.1873 12.375 15.1875C9.83887 15.1875 7.40661 14.18 5.61329 12.3867C3.81997 10.5934 2.8125 8.16113 2.8125 5.625C2.81268 4.80431 3.1119 4.01181 3.65416 3.39578C4.19642 2.77976 4.94456 2.38242 5.75859 2.27813C5.87942 2.26261 6.00199 2.28723 6.10745 2.34822C6.2129 2.4092 6.29538 2.50316 6.34219 2.61563L7.75547 5.91328C7.79222 5.9979 7.8076 6.09026 7.80024 6.18222C7.79288 6.27418 7.76302 6.36293 7.71328 6.44063L6.53906 8.22656C6.48679 8.30734 6.4561 8.40018 6.44995 8.4962C6.44379 8.59222 6.46237 8.68821 6.50391 8.775V8.775Z" stroke="#0072BB" stroke-width="1.5" stroke-linecap="round" stroke-linejoin="round"/>
</svg>
